<svg xmlns="http://www.w3.org/2000/svg" width="19.5" height="19.5" viewBox="0 0 19.5 19.5">
  <g id="Icon_ionic-ios-chatbubbles" data-name="Icon ionic-ios-chatbubbles" transform="translate(-2.25 -2.25)">
    <path id="Path_23" data-name="Path 23" d="M20.2,15.028a1.136,1.136,0,0,1,.155-.572,1.578,1.578,0,0,1,.1-.145,7.6,7.6,0,0,0,1.294-4.233A7.974,7.974,0,0,0,13.608,2.25,8.086,8.086,0,0,0,5.625,8.48a7.533,7.533,0,0,0-.173,1.6,7.952,7.952,0,0,0,8.016,7.927,9.654,9.654,0,0,0,2.212-.361c.53-.145,1.055-.337,1.191-.389a1.239,1.239,0,0,1,.436-.08,1.219,1.219,0,0,1,.473.094l2.658.942a.634.634,0,0,0,.183.047A.373.373,0,0,0,21,17.888a.6.6,0,0,0-.023-.127Z" fill="#5d5e68"/>
    <path id="Path_24" data-name="Path 24" d="M14.93,18.4c-.169.047-.384.1-.619.15a8.651,8.651,0,0,1-1.594.211A7.952,7.952,0,0,1,4.7,10.833a8.862,8.862,0,0,1,.07-1c.028-.2.061-.4.108-.6s.1-.422.164-.628l-.375.333A6.976,6.976,0,0,0,2.25,14.18a6.9,6.9,0,0,0,1.162,3.844c.108.164.169.291.15.375S3,21.3,3,21.3a.376.376,0,0,0,.127.361.382.382,0,0,0,.239.084.336.336,0,0,0,.136-.028l2.63-1.036A.733.733,0,0,1,6.7,20.7a7.889,7.889,0,0,0,2.845.563,7.362,7.362,0,0,0,5.63-2.583s.15-.206.323-.45C15.323,18.286,15.127,18.347,14.93,18.4Z" fill="#5d5e68"/>
  </g>
</svg>
