<svg xmlns="http://www.w3.org/2000/svg" width="14.734" height="13.188" viewBox="0 0 14.734 13.188">
  <path id="Icon_metro-shop" data-name="Icon metro-shop" d="M6.935,7.412l.647-4.327H4.215L2.808,6.794a1.308,1.308,0,0,0-.066.412,1.919,1.919,0,0,0,2.1,1.649A2,2,0,0,0,6.935,7.412Zm3.173,1.442a1.919,1.919,0,0,0,2.1-1.649c0-.034,0-.068,0-.1l-.417-4.022H8.425L8.008,7.1c0,.034,0,.068,0,.1a1.919,1.919,0,0,0,2.1,1.649Zm4.093.862v3.259H6.016V9.722a3.423,3.423,0,0,1-1.17.2,3.352,3.352,0,0,1-.467-.04v5.233a1.153,1.153,0,0,0,1.144,1.154h9.169a1.154,1.154,0,0,0,1.146-1.154V9.887a3.493,3.493,0,0,1-.467.04,3.381,3.381,0,0,1-1.17-.21ZM17.41,6.794,16,3.085H12.635l.647,4.321a1.993,1.993,0,0,0,2.09,1.449,1.919,1.919,0,0,0,2.1-1.649,1.332,1.332,0,0,0-.065-.412Z" transform="translate(-2.742 -3.085)" fill="#939393"/>
</svg>
