<svg xmlns="http://www.w3.org/2000/svg" width="32" height="32" viewBox="0 0 32 32">
  <g id="Group_12" data-name="Group 12" transform="translate(-101.568 -94)">
    <g id="Group_1" data-name="Group 1" transform="translate(101.841 94)">
      <rect id="Rectangle_3" data-name="Rectangle 3" width="32" height="32" rx="11" transform="translate(-0.273)" fill="#4d4e5c"/>
    </g>
    <path id="Icon_metro-shop" data-name="Icon metro-shop" d="M8.01,8.483l.813-5.4H4.593L2.825,7.712a1.622,1.622,0,0,0-.083.514,2.406,2.406,0,0,0,2.644,2.057,2.508,2.508,0,0,0,2.624-1.8ZM12,10.283A2.407,2.407,0,0,0,14.64,8.226c0-.042,0-.084-.005-.124l-.523-5.017H9.881L9.357,8.1c0,.042,0,.084,0,.129A2.407,2.407,0,0,0,12,10.283Zm5.141,1.076v4.066H6.855v-4.06a4.327,4.327,0,0,1-1.469.255,4.24,4.24,0,0,1-.587-.05V18.1a1.443,1.443,0,0,0,1.438,1.44H17.755a1.444,1.444,0,0,0,1.44-1.44V11.57a4.418,4.418,0,0,1-.587.05,4.273,4.273,0,0,1-1.469-.262Zm4.031-3.646L19.4,3.085H15.17l.812,5.39a2.5,2.5,0,0,0,2.625,1.808,2.407,2.407,0,0,0,2.644-2.057,1.651,1.651,0,0,0-.082-.514Z" transform="translate(105.796 98.687)" fill="#939393"/>
  </g>
</svg>
